<svg width="18.2667" height="16.6" overflow="visible" style="display: block;" viewBox="0 0 18.2667 16.6" fill="none" xmlns="http://www.w3.org/2000/svg">
<path id="Icon" d="M5.38333 4.13333H7.675M5.38333 7.46667H7.675M5.38333 10.8H7.675M10.5917 4.13333H12.8833M10.5917 7.46667H12.8833M10.5917 10.8H12.8833M15.8 15.8V3.46667C15.8 2.53325 15.8 2.06654 15.6183 1.71002C15.4586 1.39641 15.2036 1.14145 14.89 0.981657C14.5335 0.800001 14.0668 0.800001 13.1333 0.800001H5.13333C4.19991 0.800001 3.7332 0.800001 3.37668 0.981657C3.06308 1.14145 2.80811 1.39641 2.64832 1.71002C2.46667 2.06654 2.46667 2.53325 2.46667 3.46667V15.8M17.4667 15.8H0.8" stroke="var(--stroke-0, #004EEB)" stroke-width="1.6" stroke-linecap="round" stroke-linejoin="round"/>
</svg>
