<svg width="18.2667" height="16.6" overflow="visible" style="display: block;" viewBox="0 0 18.2667 16.6" fill="none" xmlns="http://www.w3.org/2000/svg">
<path id="Icon" d="M9.96667 7.46667H13.9667C14.9001 7.46667 15.3668 7.46667 15.7233 7.64832C16.0369 7.80811 16.2919 8.06308 16.4517 8.37668C16.6333 8.7332 16.6333 9.19991 16.6333 10.1333V15.8M9.96667 15.8V3.46667C9.96667 2.53325 9.96667 2.06654 9.78501 1.71002C9.62522 1.39641 9.37025 1.14145 9.05665 0.981657C8.70013 0.800001 8.23342 0.800001 7.3 0.800001H4.3C3.36658 0.800001 2.89987 0.800001 2.54335 0.981657C2.22975 1.14145 1.97478 1.39641 1.81499 1.71002C1.63333 2.06654 1.63333 2.53325 1.63333 3.46667V15.8M17.4667 15.8H0.8M4.55 4.13333H7.05M4.55 7.46667H7.05M4.55 10.8H7.05" stroke="var(--stroke-0, #155EEF)" stroke-width="1.6" stroke-linecap="round" stroke-linejoin="round"/>
</svg>
