<svg width="18.2667" height="14.9333" overflow="visible" style="display: block;" viewBox="0 0 18.2667 14.9333" fill="none" xmlns="http://www.w3.org/2000/svg">
<path id="Icon" d="M4.13334 6.63333V9.96667M14.1333 4.96667V8.3M13.3 0.8C15.3406 0.8 16.4443 1.1123 16.9934 1.35454C17.0666 1.38679 17.1031 1.40292 17.2087 1.50364C17.2719 1.56402 17.3874 1.74116 17.4171 1.82341C17.4667 1.96062 17.4667 2.03562 17.4667 2.18562V11.1426C17.4667 11.8999 17.4667 12.2786 17.3531 12.4732C17.2376 12.6712 17.1262 12.7632 16.91 12.8393C16.6974 12.9141 16.2683 12.8317 15.4101 12.6668C14.8095 12.5514 14.0971 12.4667 13.3 12.4667C10.8 12.4667 8.3 14.1333 4.96667 14.1333C2.92608 14.1333 1.82239 13.821 1.27324 13.5788C1.20011 13.5465 1.16354 13.5304 1.058 13.4297C0.994743 13.3693 0.879269 13.1922 0.849563 13.1099C0.800004 12.9727 0.800004 12.8977 0.800004 12.7477L0.800005 3.79071C0.800005 3.0334 0.800005 2.65475 0.913569 2.46012C1.02909 2.26214 1.1405 2.1701 1.35672 2.09401C1.56928 2.01921 1.99837 2.10165 2.85653 2.26654C3.45719 2.38195 4.16957 2.46667 4.96667 2.46667C7.46667 2.46667 9.96667 0.8 13.3 0.8ZM11.2167 7.46667C11.2167 8.61726 10.2839 9.55 9.13334 9.55C7.98274 9.55 7.05 8.61726 7.05 7.46667C7.05 6.31607 7.98274 5.38333 9.13334 5.38333C10.2839 5.38333 11.2167 6.31607 11.2167 7.46667Z" stroke="var(--stroke-0, #155EEF)" stroke-width="1.6" stroke-linecap="round" stroke-linejoin="round"/>
</svg>
