<svg width="117" height="40" viewBox="0 0 117 40" fill="none" xmlns="http://www.w3.org/2000/svg">
<path fill-rule="evenodd" clip-rule="evenodd" d="M20 34.1406C20 37.3767 17.3767 40 14.1406 40C10.9046 40 8.28125 37.3767 8.28125 34.1406C8.28125 32.5972 8.87801 31.1931 9.85339 30.1466C8.80686 31.122 7.40281 31.7188 5.85938 31.7188C2.62333 31.7188 0 29.0954 0 25.8594C0 22.6233 2.62333 20 5.85938 20C2.62333 20 0 17.3767 0 14.1406C0 10.9046 2.62333 8.28125 5.85938 8.28125C7.40281 8.28125 8.80686 8.87801 9.85339 9.85339C8.87801 8.80686 8.28125 7.40281 8.28125 5.85938C8.28125 2.62333 10.9046 0 14.1406 0C17.3767 0 20 2.62333 20 5.85938C20 5.88546 19.9998 5.9115 19.9995 5.9375H20.0005C20.0002 5.9115 20 5.88546 20 5.85938C20 2.62333 22.6233 0 25.8594 0C29.0954 0 31.7188 2.62333 31.7188 5.85938C31.7188 7.40281 31.122 8.80686 30.1466 9.85339C31.1931 8.87801 32.5972 8.28125 34.1406 8.28125C37.3767 8.28125 40 10.9046 40 14.1406C40 17.3767 37.3767 20 34.1406 20C34.1145 20 34.0885 19.9998 34.0625 19.9995V20.0005C34.0885 20.0002 34.1145 20 34.1406 20C37.3767 20 40 22.6233 40 25.8594C40 29.0954 37.3767 31.7188 34.1406 31.7188C32.5972 31.7188 31.1931 31.122 30.1466 30.1466C31.122 31.1931 31.7188 32.5972 31.7188 34.1406C31.7188 37.3767 29.0954 40 25.8594 40C22.6233 40 20 37.3767 20 34.1406ZM5.85938 20C5.88545 20 5.91148 19.9998 5.93747 19.9995V20.0005C5.91148 20.0002 5.88545 20 5.85938 20ZM20 34.1406C20 34.1145 19.9998 34.0885 19.9995 34.0625H20.0005C20.0002 34.0885 20 34.1145 20 34.1406ZM10 20C15.5228 20 20 15.5228 20 10C20 15.5228 24.4772 20 30 20C24.4772 20 20 24.4771 20 30C20 24.4771 15.5228 20 10 20Z" fill="#0073FF"/>
<path d="M49.1602 28.75V13.75H53.125V16.3965H53.3008C53.6133 15.5176 54.1341 14.8242 54.8633 14.3164C55.5924 13.8086 56.4648 13.5547 57.4805 13.5547C58.5091 13.5547 59.3848 13.8118 60.1074 14.3262C60.8301 14.834 61.3118 15.5241 61.5527 16.3965H61.709C62.015 15.5371 62.5684 14.8503 63.3691 14.3359C64.1764 13.8151 65.1302 13.5547 66.2305 13.5547C67.6302 13.5547 68.7663 14.0007 69.6387 14.8926C70.5176 15.778 70.957 17.0345 70.957 18.6621V28.75H66.8066V19.4824C66.8066 18.6491 66.5853 18.0241 66.1426 17.6074C65.6999 17.1908 65.1465 16.9824 64.4824 16.9824C63.7272 16.9824 63.138 17.2233 62.7148 17.7051C62.2917 18.1803 62.0801 18.8086 62.0801 19.5898V28.75H58.0469V19.3945C58.0469 18.6589 57.8353 18.0729 57.4121 17.6367C56.9954 17.2005 56.4453 16.9824 55.7617 16.9824C55.2995 16.9824 54.8828 17.0996 54.5117 17.334C54.1471 17.5618 53.8574 17.8841 53.6426 18.3008C53.4277 18.7109 53.3203 19.1927 53.3203 19.7461V28.75H49.1602Z" fill="black"/>
<path d="M72.8682 28.75V13.75H77.0283V28.75H72.8682ZM74.958 11.8164C74.3395 11.8164 73.8089 11.6113 73.3662 11.2012C72.93 10.7845 72.7119 10.2865 72.7119 9.70703C72.7119 9.13411 72.93 8.64258 73.3662 8.23242C73.8089 7.81576 74.3395 7.60742 74.958 7.60742C75.5765 7.60742 76.1038 7.81576 76.54 8.23242C76.9827 8.64258 77.2041 9.13411 77.2041 9.70703C77.2041 10.2865 76.9827 10.7845 76.54 11.2012C76.1038 11.6113 75.5765 11.8164 74.958 11.8164Z" fill="black"/>
<path d="M78.9858 28.75V13.75H82.9507V16.3965H83.1265C83.439 15.5176 83.9598 14.8242 84.689 14.3164C85.4181 13.8086 86.2905 13.5547 87.3062 13.5547C88.3348 13.5547 89.2104 13.8118 89.9331 14.3262C90.6558 14.834 91.1375 15.5241 91.3784 16.3965H91.5347C91.8407 15.5371 92.394 14.8503 93.1948 14.3359C94.0021 13.8151 94.9559 13.5547 96.0562 13.5547C97.4559 13.5547 98.592 14.0007 99.4644 14.8926C100.343 15.778 100.783 17.0345 100.783 18.6621V28.75H96.6323V19.4824C96.6323 18.6491 96.411 18.0241 95.9683 17.6074C95.5256 17.1908 94.9722 16.9824 94.3081 16.9824C93.5529 16.9824 92.9637 17.2233 92.5405 17.7051C92.1173 18.1803 91.9058 18.8086 91.9058 19.5898V28.75H87.8726V19.3945C87.8726 18.6589 87.661 18.0729 87.2378 17.6367C86.8211 17.2005 86.271 16.9824 85.5874 16.9824C85.1252 16.9824 84.7085 17.0996 84.3374 17.334C83.9728 17.5618 83.6831 17.8841 83.4683 18.3008C83.2534 18.7109 83.146 19.1927 83.146 19.7461V28.75H78.9858Z" fill="black"/>
<path d="M109.471 29.043C107.954 29.043 106.642 28.7207 105.536 28.0762C104.435 27.4251 103.586 26.5202 102.987 25.3613C102.388 24.196 102.088 22.8451 102.088 21.3086C102.088 19.7591 102.388 18.4049 102.987 17.2461C103.586 16.0807 104.435 15.1758 105.536 14.5312C106.642 13.8802 107.954 13.5547 109.471 13.5547C110.988 13.5547 112.297 13.8802 113.397 14.5312C114.504 15.1758 115.357 16.0807 115.956 17.2461C116.555 18.4049 116.854 19.7591 116.854 21.3086C116.854 22.8451 116.555 24.196 115.956 25.3613C115.357 26.5202 114.504 27.4251 113.397 28.0762C112.297 28.7207 110.988 29.043 109.471 29.043ZM109.491 25.8203C110.181 25.8203 110.757 25.625 111.219 25.2344C111.681 24.8372 112.03 24.2969 112.264 23.6133C112.505 22.9297 112.625 22.1517 112.625 21.2793C112.625 20.4069 112.505 19.6289 112.264 18.9453C112.03 18.2617 111.681 17.7214 111.219 17.3242C110.757 16.9271 110.181 16.7285 109.491 16.7285C108.794 16.7285 108.208 16.9271 107.733 17.3242C107.264 17.7214 106.909 18.2617 106.668 18.9453C106.434 19.6289 106.317 20.4069 106.317 21.2793C106.317 22.1517 106.434 22.9297 106.668 23.6133C106.909 24.2969 107.264 24.8372 107.733 25.2344C108.208 25.625 108.794 25.8203 109.491 25.8203Z" fill="black"/>
</svg>
